<svg xmlns="http://www.w3.org/2000/svg" width="74" height="74" viewBox="0 0 80 80"><defs><style>.a,.b{fill:none;stroke:#333;stroke-miterlimit:10;}.a{stroke-width:2px;}.b{stroke-width:5px;}</style></defs><title>tree2</title><line class="a" x1="37" y1="64" x2="37" y2="10"/><line class="a" x1="25" y1="23" x2="17" y2="23"/><line class="a" x1="37" y1="28" x2="25" y2="16"/><line class="a" x1="37" y1="35" x2="19" y2="17"/><line class="a" x1="37" y1="21" x2="29" y2="13"/><line class="a" x1="22" y1="27" x2="37" y2="42"/><line class="a" x1="19.6" y1="31" x2="26.3" y2="31"/><polyline class="a" points="15 27 19.6 31 15 35"/><line class="a" x1="31" y1="43" x2="27" y2="47"/><line class="a" x1="27" y1="39" x2="21" y2="45"/><polyline class="a" points="37 49 25 37 20 37"/><line class="a" x1="49" y1="23" x2="57" y2="23"/><line class="a" x1="37" y1="28" x2="49" y2="16"/><line class="a" x1="37" y1="35" x2="55" y2="17"/><line class="a" x1="37" y1="21" x2="45" y2="13"/><line class="a" x1="52" y1="27" x2="37" y2="42"/><line class="a" x1="54.4" y1="31" x2="47.7" y2="31"/><polyline class="a" points="59 27 54.4 31 59 35"/><line class="a" x1="43" y1="43" x2="47" y2="47"/><line class="a" x1="47" y1="39" x2="53" y2="45"/><polyline class="a" points="37 49 49 37 54 37"/><circle class="b" cx="37" cy="37" r="37"/></svg>