<svg xmlns="http://www.w3.org/2000/svg" width="260" height="328" viewBox="0 0 260 328"><defs><style>.a{fill:none;stroke:#333;stroke-miterlimit:10;stroke-width:15px;}</style></defs><title>tree</title><line class="a" x1="130" y1="328" x2="130"/><line class="a" x1="60" y1="77" x2="13" y2="77"/><line class="a" x1="130" y1="105" x2="63" y2="38"/><line class="a" x1="130" y1="147" x2="25" y2="42"/><line class="a" x1="130" y1="63" x2="82" y2="15"/><line class="a" x1="39" y1="98" x2="130" y2="189"/><line class="a" x1="27" y1="126" x2="67" y2="126"/><polyline class="a" points="0 100 27 126 0 150"/><line class="a" x1="96" y1="196" x2="74" y2="218"/><line class="a" x1="73" y1="173" x2="39" y2="207"/><polyline class="a" points="130 230 58 158 32 158"/><line class="a" x1="200" y1="77" x2="247" y2="77"/><line class="a" x1="130" y1="105" x2="197" y2="38"/><line class="a" x1="130" y1="147" x2="235" y2="42"/><line class="a" x1="130" y1="63" x2="178" y2="15"/><line class="a" x1="221" y1="98" x2="130" y2="189"/><line class="a" x1="233" y1="126" x2="193" y2="126"/><polyline class="a" points="260 100 233 126 260 150"/><line class="a" x1="164" y1="196" x2="186" y2="218"/><line class="a" x1="187" y1="173" x2="221" y2="207"/><polyline class="a" points="130 230 202 158 228 158"/></svg>